# xmcd
# Track frame offsets:
# 150
# 16081
# 26627
# 36708
# 47659
# 62450
# 77466
# 94177
# 105278
# 116484
# 126625
# 137351
# 147762
# 168923
# 182124
# 194800
# 208256
# 227031
# 239632
# 255848
#
# Disc length: 3645 seconds
# Revision: 0
# Processed by: cddbd v1.5.2PL0 Copyright (c) Steve Scherf et al.
# Submitted via: VisiTrax 2.11.1.266 - For more info visit www.synapsa.com
#
DISCID=140e3b14
DTITLE=Various Artist - 100 Country Hits [CD5)
DYEAR=2010
DGENRE=Country
TTITLE0=John Denver - I'm sorry
TTITLE1=The Statler Brothers - Flowers on the wall
TTITLE2=George Hamilton IV - Abilene
TTITLE3=Tanya Tucker - Would you lay with me
TTITLE4=Ronnie Milsap - (There's) no gettin' over me
TTITLE5=Sylvia - Nobody
TTITLE6=Gretchen Wilson - Redneck woman
TTITLE7="Little" Jimmy Dickens - May the bird of paradise fly up your nose
TTITLE8=Stonewall Jackson - Waterloo
TTITLE9=Billy Walker - Charlie's shoes
TTITLE10=Carl Smith - (When you feel like you're in love) Don't  just stand the
TTITLE10=re
TTITLE11=Connie Smith - Once a day
TTITLE12=Sko/Torp - Cold night without you
TTITLE13=David Houston - Almost persuaded
TTITLE14=Johnny Horton - North to Alaska
TTITLE15=Claude King - Wolverton mountain
TTITLE16=Big Fat Snake - Sittin' by the road
TTITLE17=Aaron Tippin - There ain't nothin' wrong with the radio
TTITLE18=Charlie Daniels - The devil went down to Georgia
TTITLE19=Montgomery Gentry - Roll with me
EXTD=Sony Music\n88967736142
EXTT0=
EXTT1=
EXTT2=
EXTT3=
EXTT4=
EXTT5=
EXTT6=
EXTT7=
EXTT8=
EXTT9=
EXTT10=
EXTT11=
EXTT12=
EXTT13=
EXTT14=
EXTT15=
EXTT16=
EXTT17=
EXTT18=
EXTT19=
PLAYORDER=
